<?xml version="1.0" standalone="no"?><!DOCTYPE svg PUBLIC "-//W3C//DTD SVG 1.1//EN" "http://www.w3.org/Graphics/SVG/1.1/DTD/svg11.dtd"><svg class="icon" width="200px" height="200.00px" viewBox="0 0 1024 1024" version="1.1" xmlns="http://www.w3.org/2000/svg"><path fill="#333333" d="M793 347.43c-98.47-56.72-224.27-22.89-281 75.57a205.76 205.76 0 0 0-75.57-75.57c-98.43-56.72-224.27-22.89-281 75.57S132.54 647.27 231 704s224.27 22.89 281-75.57A205.76 205.76 0 0 0 587.57 704c98.46 56.73 224.27 22.89 281-75.57s22.89-224.27-75.57-281zM333.68 676.6a150.89 150.89 0 1 1 150.89-150.88A150.89 150.89 0 0 1 333.68 676.6z m358.56 0a150.89 150.89 0 1 1 150.89-150.88A150.89 150.89 0 0 1 692.24 676.6zM210.23 265.09m-27.43 0a27.43 27.43 0 1 0 54.86 0 27.43 27.43 0 1 0-54.86 0ZM512 265.09m-27.43 0a27.43 27.43 0 1 0 54.86 0 27.43 27.43 0 1 0-54.86 0ZM813.77 265.09m-27.43 0a27.43 27.43 0 1 0 54.86 0 27.43 27.43 0 1 0-54.86 0ZM210.23 758.91m-27.43 0a27.43 27.43 0 1 0 54.86 0 27.43 27.43 0 1 0-54.86 0ZM512 758.91m-27.43 0a27.43 27.43 0 1 0 54.86 0 27.43 27.43 0 1 0-54.86 0ZM813.77 758.91m-27.43 0a27.43 27.43 0 1 0 54.86 0 27.43 27.43 0 1 0-54.86 0Z" /></svg>